<?xml version="1.0" encoding="utf-8"?><svg xmlns="http://www.w3.org/2000/svg" xmlns:xlink="http://www.w3.org/1999/xlink"><symbol viewBox="0 0 17 10" id="arrow-left" xmlns="http://www.w3.org/2000/svg"><path d="M16 5H3m2 4L1 5l4-4" fill-rule="evenodd"/></symbol><symbol viewBox="0 0 17 10" id="arrow-right" xmlns="http://www.w3.org/2000/svg"><path d="M1 5h13m-2-4l4 4-4 4" fill-rule="evenodd"/></symbol><symbol class="cfeather cfeather-arrow-up" viewBox="0 0 24 24" id="arrow-up" xmlns="http://www.w3.org/2000/svg"><path d="M12 19V5m-7 7l7-7 7 7"/></symbol><symbol class="dfeather dfeather-bookmark" viewBox="0 0 24 24" id="bookmark" xmlns="http://www.w3.org/2000/svg"><path d="M19 21l-7-5-7 5V5a2 2 0 012-2h10a2 2 0 012 2z"/></symbol><symbol viewBox="0 0 24 24" id="calendar" xmlns="http://www.w3.org/2000/svg"><rect x="3" y="4" width="18" height="18" rx="2" ry="2"/><path d="M16 2v4M8 2v4m-5 4h18"/></symbol><symbol viewBox="0 0 24 24" id="clock" xmlns="http://www.w3.org/2000/svg"><circle cx="12" cy="12" r="10"/><path d="M12 6v6l4 2"/></symbol><symbol class="gfeather gfeather-message-square" viewBox="0 0 24 24" id="comment" xmlns="http://www.w3.org/2000/svg"><path d="M21 15a2 2 0 01-2 2H7l-4 4V5a2 2 0 012-2h14a2 2 0 012 2z"/></symbol><symbol class="hfeather hfeather-at-sign" viewBox="0 0 24 24" id="email" xmlns="http://www.w3.org/2000/svg"><circle cx="12" cy="12" r="4"/><path d="M16 8v5a3 3 0 006 0v-1a10 10 0 10-3.92 7.94"/></symbol><symbol viewBox="0 0 24 24" id="facebook" xmlns="http://www.w3.org/2000/svg"><path d="M22.676 0H1.324C.593 0 0 .593 0 1.324v21.352C0 23.408.593 24 1.324 24h11.494v-9.294H9.689v-3.621h3.129V8.41c0-3.099 1.894-4.785 4.659-4.785 1.325 0 2.464.097 2.796.141v3.24h-1.921c-1.5 0-1.792.721-1.792 1.771v2.311h3.584l-.465 3.63H16.56V24h6.115c.733 0 1.325-.592 1.325-1.324V1.324C24 .593 23.408 0 22.676 0"/></symbol><symbol viewBox="0 0 24 24" id="github" xmlns="http://www.w3.org/2000/svg"><path d="M12 .297c-6.63 0-12 5.373-12 12 0 5.303 3.438 9.8 8.205 11.385.6.113.82-.258.82-.577 0-.285-.01-1.04-.015-2.04-3.338.724-4.042-1.61-4.042-1.61C4.422 18.07 3.633 17.7 3.633 17.7c-1.087-.744.084-.729.084-.729 1.205.084 1.838 1.236 1.838 1.236 1.07 1.835 2.809 1.305 3.495.998.108-.776.417-1.305.76-1.605-2.665-.3-5.466-1.332-5.466-5.93 0-1.31.465-2.38 1.235-3.22-.135-.303-.54-1.523.105-3.176 0 0 1.005-.322 3.3 1.23.96-.267 1.98-.399 3-.405 1.02.006 2.04.138 3 .405 2.28-1.552 3.285-1.23 3.285-1.23.645 1.653.24 2.873.12 3.176.765.84 1.23 1.91 1.23 3.22 0 4.61-2.805 5.625-5.475 5.92.42.36.81 1.096.81 2.22 0 1.606-.015 2.896-.015 3.286 0 .315.21.69.825.57C20.565 22.092 24 17.592 24 12.297c0-6.627-5.373-12-12-12"/></symbol><symbol viewBox="0 0 24 24" id="home" xmlns="http://www.w3.org/2000/svg"><path d="M3 9l9-7 9 7v11a2 2 0 01-2 2H5a2 2 0 01-2-2z"/><path d="M9 22V12h6v10"/></symbol><symbol viewBox="0 0 24 24" id="instagram" xmlns="http://www.w3.org/2000/svg"><path d="M12 0C8.74 0 8.333.015 7.053.072 5.775.132 4.905.333 4.14.63c-.789.306-1.459.717-2.126 1.384S.935 3.35.63 4.14C.333 4.905.131 5.775.072 7.053.012 8.333 0 8.74 0 12s.015 3.667.072 4.947c.06 1.277.261 2.148.558 2.913a5.885 5.885 0 001.384 2.126A5.868 5.868 0 004.14 23.37c.766.296 1.636.499 2.913.558C8.333 23.988 8.74 24 12 24s3.667-.015 4.947-.072c1.277-.06 2.148-.262 2.913-.558a5.898 5.898 0 002.126-1.384 5.86 5.86 0 001.384-2.126c.296-.765.499-1.636.558-2.913.06-1.28.072-1.687.072-4.947s-.015-3.667-.072-4.947c-.06-1.277-.262-2.149-.558-2.913a5.89 5.89 0 00-1.384-2.126A5.847 5.847 0 0019.86.63c-.765-.297-1.636-.499-2.913-.558C15.667.012 15.26 0 12 0zm0 2.16c3.203 0 3.585.016 4.85.071 1.17.055 1.805.249 2.227.415.562.217.96.477 1.382.896.419.42.679.819.896 1.381.164.422.36 1.057.413 2.227.057 1.266.07 1.646.07 4.85s-.015 3.585-.074 4.85c-.061 1.17-.256 1.805-.421 2.227a3.81 3.81 0 01-.899 1.382 3.744 3.744 0 01-1.38.896c-.42.164-1.065.36-2.235.413-1.274.057-1.649.07-4.859.07-3.211 0-3.586-.015-4.859-.074-1.171-.061-1.816-.256-2.236-.421a3.716 3.716 0 01-1.379-.899 3.644 3.644 0 01-.9-1.38c-.165-.42-.359-1.065-.42-2.235-.045-1.26-.061-1.649-.061-4.844 0-3.196.016-3.586.061-4.861.061-1.17.255-1.814.42-2.234.21-.57.479-.96.9-1.381.419-.419.81-.689 1.379-.898.42-.166 1.051-.361 2.221-.421 1.275-.045 1.65-.06 4.859-.06l.045.03zm0 3.678a6.162 6.162 0 100 12.324 6.162 6.162 0 100-12.324zM12 16c-2.21 0-4-1.79-4-4s1.79-4 4-4 4 1.79 4 4-1.79 4-4 4zm7.846-10.405a1.441 1.441 0 01-2.88 0 1.44 1.44 0 012.88 0z"/></symbol><symbol viewBox="0 0 24 24" id="link" xmlns="http://www.w3.org/2000/svg"><path d="M6.188 8.719a6.446 6.446 0 011.444-1.087c2.887-1.591 6.589-.745 8.445 2.069l-2.246 2.245a3.385 3.385 0 00-3.834-1.949 3.33 3.33 0 00-1.633.898L4.06 15.201c-1.307 1.307-1.307 3.433 0 4.74s3.433 1.307 4.74 0l1.327-1.327a8.533 8.533 0 003.779.575l-2.929 2.929a6.43 6.43 0 11-9.093-9.093zm6.836-6.836l-2.929 2.929a8.534 8.534 0 013.779.574L15.2 4.06c1.307-1.307 3.433-1.307 4.74 0s1.307 3.433 0 4.74l-4.305 4.305a3.358 3.358 0 01-4.74 0 3.567 3.567 0 01-.727-1.051l-2.246 2.245c.236.358.481.667.796.982a6.404 6.404 0 003.036 1.704 6.441 6.441 0 004.613-.617 6.446 6.446 0 001.444-1.087l4.304-4.305a6.429 6.429 0 10-9.091-9.093z"/></symbol><symbol viewBox="0 0 24 24" id="linkedin" xmlns="http://www.w3.org/2000/svg"><path d="M20.447 20.452h-3.554v-5.569c0-1.328-.027-3.037-1.852-3.037-1.853 0-2.136 1.445-2.136 2.939v5.667H9.351V9h3.414v1.561h.046c.477-.9 1.637-1.85 3.37-1.85 3.601 0 4.267 2.37 4.267 5.455v6.286zM5.337 7.433a2.062 2.062 0 01-2.063-2.065 2.064 2.064 0 112.063 2.065zm1.782 13.019H3.555V9h3.564zM22.225 0H1.771C.792 0 0 .774 0 1.729v20.542C0 23.227.792 24 1.771 24h20.451C23.2 24 24 23.227 24 22.271V1.729C24 .774 23.2 0 22.222 0z"/></symbol><symbol class="ofeather ofeather-loader" viewBox="0 0 24 24" id="loader" xmlns="http://www.w3.org/2000/svg"><path d="M12 2v4m0 12v4M4.93 4.93l2.83 2.83m8.48 8.48l2.83 2.83M2 12h4m12 0h4M4.93 19.07l2.83-2.83m8.48-8.48l2.83-2.83"/></symbol><symbol class="pfeather pfeather-menu" viewBox="0 0 24 24" id="menu" xmlns="http://www.w3.org/2000/svg"><path d="M3 12h18M3 6h18M3 18h18"/></symbol><symbol viewBox="0 0 24 24" id="rss" xmlns="http://www.w3.org/2000/svg"><path d="M19.199 24C19.199 13.467 10.533 4.8 0 4.8V0c13.165 0 24 10.835 24 24zM3.291 17.415a3.3 3.3 0 013.293 3.295A3.303 3.303 0 013.283 24C1.47 24 0 22.526 0 20.71s1.475-3.294 3.291-3.295zM15.909 24h-4.665c0-6.169-5.075-11.245-11.244-11.245V8.09c8.727 0 15.909 7.184 15.909 15.91z"/></symbol><symbol viewBox="0 0 24 24" id="search" xmlns="http://www.w3.org/2000/svg"><circle cx="11" cy="11" r="8"/><path d="M21 21l-4.35-4.35"/></symbol><symbol viewBox="0 0 24 24" id="send" xmlns="http://www.w3.org/2000/svg"><path d="M22 2L11 13M22 2l-7 20-4-9-9-4 20-7z"/></symbol><symbol class="tfeather tfeather-log-in" viewBox="0 0 24 24" id="signin" xmlns="http://www.w3.org/2000/svg"><path d="M15 3h4a2 2 0 012 2v14a2 2 0 01-2 2h-4m-5-4l5-5-5-5m5 5H3"/></symbol><symbol viewBox="0 0 24 24" id="twitter" xmlns="http://www.w3.org/2000/svg"><path d="M23.954 4.569a10 10 0 01-2.825.775 4.958 4.958 0 002.163-2.723c-.951.555-2.005.959-3.127 1.184a4.92 4.92 0 00-8.384 4.482C7.691 8.094 4.066 6.13 1.64 3.161a4.822 4.822 0 00-.666 2.475c0 1.71.87 3.213 2.188 4.096a4.904 4.904 0 01-2.228-.616v.061a4.923 4.923 0 003.946 4.827 4.996 4.996 0 01-2.212.085 4.937 4.937 0 004.604 3.417 9.868 9.868 0 01-6.102 2.105c-.39 0-.779-.023-1.17-.067a13.995 13.995 0 007.557 2.209c9.054 0 13.999-7.496 13.999-13.986 0-.209 0-.42-.015-.63a9.936 9.936 0 002.46-2.548z"/></symbol><symbol class="vfeather vfeather-x" viewBox="0 0 24 24" id="x" xmlns="http://www.w3.org/2000/svg"><path d="M18 6L6 18M6 6l12 12"/></symbol></svg>